<?xml version="1.0" encoding="UTF-8" standalone="no"?>
<!-- Created with Inkscape (http://www.inkscape.org/) -->

<svg
   width="210mm"
   height="297mm"
   viewBox="0 0 210 297"
   version="1.1"
   id="svg5"
   xml:space="preserve"
   inkscape:version="1.2.2 (732a01da63, 2022-12-09)"
   sodipodi:docname="wolfHack_logo.svg"
   xmlns:inkscape="http://www.inkscape.org/namespaces/inkscape"
   xmlns:sodipodi="http://sodipodi.sourceforge.net/DTD/sodipodi-0.dtd"
   xmlns="http://www.w3.org/2000/svg"
   xmlns:svg="http://www.w3.org/2000/svg"><sodipodi:namedview
     id="namedview7"
     pagecolor="#ffffff"
     bordercolor="#000000"
     borderopacity="0.25"
     inkscape:showpageshadow="2"
     inkscape:pageopacity="0.0"
     inkscape:pagecheckerboard="0"
     inkscape:deskcolor="#d1d1d1"
     inkscape:document-units="mm"
     showgrid="false"
     showguides="false"
     inkscape:zoom="0.74564394"
     inkscape:cx="303.09373"
     inkscape:cy="256.15443"
     inkscape:window-width="1920"
     inkscape:window-height="1017"
     inkscape:window-x="-8"
     inkscape:window-y="-8"
     inkscape:window-maximized="1"
     inkscape:current-layer="layer1" /><defs
     id="defs2" /><g
     inkscape:label="Layer 1"
     inkscape:groupmode="layer"
     id="layer1"><g
       transform="matrix(0.00661578,0.00318388,0.00318388,-0.00661578,45.949345,112.90733)"
       fill="#000000"
       stroke="none"
       id="g1111"
       style="fill:#041e42;fill-opacity:1;stroke:#041e42;stroke-opacity:1"><g
         id="g2902"
         transform="rotate(-0.24727325,5352.9067,6675.0714)"><g
           id="g2910"><g
             id="g2894"
             transform="rotate(0.55152788,5360.1187,6676.6149)"><path
               d="m 4016,12755 c 4,-16 107,-408 230,-870 l 222,-840 -28,-40 c -66,-96 -136,-273 -159,-402 -6,-32 -15,-116 -20,-188 -8,-115 -6,-148 15,-290 84,-567 210,-1001 421,-1448 35,-76 62,-141 59,-144 -8,-9 43,-97 144,-248 245,-364 526,-654 805,-830 309,-194 586,-255 824,-180 634,200 710,1343 166,2473 -348,722 -863,1279 -1365,1476 -158,62 -369,159 -384,175 -8,9 -218,320 -466,691 -249,371 -457,680 -462,685 -6,6 -7,-1 -2,-20 z"
               id="path1101"
               style="fill:#041e42;fill-opacity:1;stroke:#041e42;stroke-opacity:1" /><path
               d="m 1452,11660 c 3,-8 22,-67 42,-130 21,-63 114,-349 208,-635 93,-286 192,-587 218,-670 l 49,-150 -43,-170 c -24,-93 -53,-201 -65,-240 -45,-149 -55,-236 -55,-490 0,-254 10,-350 60,-580 101,-469 310,-952 594,-1375 496,-741 1164,-1150 1624,-996 269,91 436,332 508,736 17,98 17,492 -1,620 -28,209 -91,470 -161,673 -49,142 -77,207 -95,221 -8,6 -37,63 -65,125 -60,136 -125,260 -228,433 -155,260 -314,461 -567,714 -148,148 -215,207 -305,269 -130,89 -268,157 -385,190 -85,25 -257,50 -279,42 -7,-3 -52,26 -99,64 l -86,69 -427,637 c -235,351 -431,643 -437,648 -7,7 -8,5 -5,-5 z"
               id="path1103"
               style="fill:#041e42;fill-opacity:1;stroke:#041e42;stroke-opacity:1" /><path
               d="m 7980,11278 c -19,-5 -36,-11 -38,-12 -1,-2 32,-54 73,-116 210,-314 376,-773 429,-1185 22,-164 21,-175 -7,-175 -57,0 -189,-59 -272,-120 -300,-223 -510,-680 -587,-1280 -19,-154 -16,-609 5,-773 113,-852 502,-1472 967,-1539 495,-73 931,517 1035,1399 20,171 20,575 0,746 -41,347 -122,636 -256,916 -57,120 -69,153 -69,195 0,70 -25,217 -60,356 -144,568 -528,1215 -880,1477 -118,89 -260,135 -340,111 z"
               id="path1105"
               style="fill:#041e42;fill-opacity:1;stroke:#041e42;stroke-opacity:1" /><path
               d="M 123,7451 C 54,7408 13,7296 3,7125 -24,6611 376,5710 822,5285 c 87,-84 99,-99 147,-200 133,-279 298,-504 560,-765 256,-255 536,-458 836,-605 603,-297 1141,-309 1415,-33 152,153 208,406 150,687 -103,509 -527,1080 -1115,1503 -356,256 -758,423 -1125,468 -256,31 -483,-19 -649,-142 l -53,-40 -75,73 c -164,161 -351,399 -472,601 -111,186 -271,553 -271,622 0,21 -8,20 -47,-3 z"
               id="path1107"
               style="fill:#041e42;fill-opacity:1;stroke:#041e42;stroke-opacity:1" /></g><path
             d="m 6124.7162,6190.3374 c -318.7638,-26.0696 -646.295,-180.2295 -873.0897,-410.4233 -156.4815,-158.5136 -254.0041,-312.4594 -287.6356,-454.7898 -62.4654,-263.6135 -82.7018,-550.8216 -63.3912,-894.6516 28.7925,-497.7459 28.7637,-494.7461 12.6982,-591.9052 -34.0058,-207.3369 -135.6234,-455.3266 -255.991,-625.4931 -32.5557,-46.3155 -94.8982,-114.9188 -150.4336,-163.4556 -160.6256,-143.5528 -330.6829,-346.1992 -459.7516,-547.4509 -193.0839,-303.8727 -252.3003,-489.4513 -263.998,-832.5798 -12.7265,-340.1382 88.484,-673.17941 295.4297,-978.20152 99.4008,-145.0499 297.2977,-341.15407 439.1863,-432.79252 176.1085,-114.3101 383.9268,-198.313573 591.3215,-238.319081 73.141,-14.2966196 132.1671,-16.7285567 315.1394,-12.9671227 451.9502,7.3507357 585.4627,58.6382797 861.8411,332.3113337 162.4619,160.57127 223.6986,240.16441 360.536,465.49202 57.1117,92.55404 143.8467,224.39509 194.1801,293.88279 101.6765,137.9851 281.8007,333.728 397.8519,432.8497 225.1702,191.1763 506.8287,331.894 817.1116,407.8843 221.4796,55.1344 310.3985,63.9908 654.3825,67.302 287.9963,1.7723 343.013,0.3018 555.2535,-23.6563 181.2033,-20.2567 257.248,-24.5249 332.1963,-18.8032 320.7927,23.089 576.5774,150.557 840.0144,418.1052 94.081,95.9101 148.453,161.4365 196.738,235.9047 345.796,542.3537 326.174,1230.1967 -53.209,1787.5707 -84.19,123.1953 -283.154,326.2895 -394.909,404.2174 -166.109,114.4063 -336.8714,192.7662 -520.3346,240.0024 -209.5197,52.9857 -241.5279,53.6776 -505.0728,5.1385 -285.5055,-52.7507 -384.4143,-62.7032 -550.5125,-53.3016 -265.1513,14.4484 -531.015,102.8933 -746.4201,247.8266 -46.2963,30.5558 -254.0194,208.5645 -462.8291,395.5632 -376.2747,338.3937 -378.2939,340.3744 -488.8086,393.313 -180.8483,87.2633 -349.3026,133.6439 -547.4667,149.7371 -112.1007,9.9214 -145.0991,9.6038 -240.0274,1.6897 z"
             id="path1109"
             style="fill:#041e42;fill-opacity:1;stroke:#041e42;stroke-opacity:1" /></g></g></g><text
       xml:space="preserve"
       style="font-size:10.5123px;fill:#ffffff;stroke:#041e42;stroke-width:0;paint-order:stroke fill markers"
       x="76.807747"
       y="121.84818"
       id="text796"><tspan
         sodipodi:role="line"
         id="tspan794"
         style="font-style:normal;font-variant:normal;font-weight:normal;font-stretch:normal;font-family:Garet;-inkscape-font-specification:Garet;stroke-width:0"
         x="76.807747"
         y="121.84818">WolfHack</tspan></text></g></svg>
