<?xml version="1.0" standalone="no"?>
<!DOCTYPE svg PUBLIC "-//W3C//DTD SVG 20010904//EN"
 "http://www.w3.org/TR/2001/REC-SVG-20010904/DTD/svg10.dtd">
<svg version="1.0" xmlns="http://www.w3.org/2000/svg"
 width="500.000000pt" height="188.000000pt" viewBox="0 0 500.000000 188.000000"
 preserveAspectRatio="xMidYMid meet">

<g transform="translate(0.000000,188.000000) scale(0.100000,-0.100000)"
fill="#ffffff" stroke="none">
<path d="M587 1780 c-4 -19 -11 -68 -17 -109 -8 -59 -17 -81 -40 -108 -41 -46
-57 -81 -76 -160 -19 -81 -14 -201 13 -283 22 -68 87 -140 127 -140 101 0 175
150 163 330 -8 116 -38 200 -92 256 -41 41 -43 48 -55 131 -16 121 -16 122
-23 83z"/>
<path d="M973 1755 c-6 -27 -17 -79 -23 -115 -9 -52 -18 -72 -46 -99 -68 -69
-106 -291 -70 -415 22 -74 58 -131 95 -151 38 -19 54 -19 92 0 66 35 110 150
110 292 0 131 -19 195 -85 277 -27 35 -33 54 -46 150 l-16 111 -11 -50z"/>
<path d="M141 1359 c-36 -39 -52 -170 -30 -254 5 -22 14 -73 19 -114 17 -137
103 -271 196 -307 54 -21 84 -11 114 38 78 128 -71 438 -210 438 -36 0 -38 2
-51 47 -7 26 -13 75 -13 110 0 35 -1 63 -2 63 -2 0 -12 -10 -23 -21z"/>
<path d="M1389 1314 c0 -38 -6 -87 -13 -109 -11 -36 -15 -41 -51 -46 -53 -7
-74 -20 -119 -70 -62 -68 -99 -159 -104 -254 -5 -95 10 -135 58 -155 94 -39
234 112 261 281 5 35 15 87 22 114 14 65 14 190 -2 236 -6 20 -21 45 -31 54
-20 18 -20 17 -21 -51z"/>
<path d="M2993 1312 c-25 -19 -43 -61 -43 -98 0 -20 -5 -24 -30 -24 -28 0 -30
-3 -30 -35 0 -32 2 -35 30 -35 l30 0 0 -120 0 -120 45 0 45 0 0 120 0 120 45
0 c45 0 45 0 45 35 0 35 0 35 -45 35 -41 0 -45 2 -45 24 0 30 17 44 60 48 31
3 35 6 38 36 l3 32 -63 0 c-44 0 -70 -6 -85 -18z"/>
<path d="M2740 1100 l0 -220 45 0 45 0 0 220 0 220 -45 0 -45 0 0 -220z"/>
<path d="M4560 1100 l0 -220 45 0 45 0 0 60 c0 57 1 60 24 60 20 0 31 -12 58
-60 l33 -60 53 0 c29 0 51 3 49 8 -3 4 -23 38 -46 76 -38 61 -41 70 -27 85 15
16 56 113 56 132 0 6 -20 9 -47 7 -44 -3 -47 -5 -60 -43 -15 -45 -36 -65 -70
-65 -23 0 -23 1 -23 120 l0 120 -45 0 -45 0 0 -220z"/>
<path d="M1640 1294 c0 -3 30 -98 66 -210 l66 -204 46 0 47 0 45 130 c25 72
48 130 51 130 3 0 25 -58 50 -130 l44 -130 47 0 47 0 66 204 c36 112 65 206
65 210 0 3 -22 6 -48 6 l-48 0 -39 -125 c-21 -69 -41 -128 -44 -130 -4 -2 -26
55 -51 126 l-44 129 -46 0 -45 0 -45 -130 c-25 -71 -47 -126 -51 -122 -3 4
-23 62 -44 130 l-39 122 -48 0 c-26 0 -48 -3 -48 -6z"/>
<path d="M3340 1090 l0 -210 45 0 45 0 0 85 0 85 85 0 85 0 0 -85 0 -85 45 0
45 0 0 210 0 210 -45 0 -45 0 0 -80 0 -80 -85 0 -85 0 0 80 0 80 -45 0 -45 0
0 -210z"/>
<path d="M2404 1180 c-58 -29 -88 -85 -82 -156 8 -96 69 -149 173 -149 77 0
125 28 156 91 39 82 3 187 -77 220 -48 20 -122 17 -170 -6z m154 -87 c72 -79
-48 -194 -123 -118 -17 16 -25 35 -25 59 0 50 9 67 44 81 39 17 75 10 104 -22z"/>
<path d="M3843 1180 c-31 -18 -53 -48 -53 -69 0 -17 79 -13 96 4 18 18 75 20
92 3 7 -7 12 -20 12 -30 0 -15 -9 -18 -64 -18 -81 0 -123 -15 -141 -51 -23
-43 -18 -77 14 -110 26 -26 36 -29 88 -29 32 1 69 7 83 15 32 18 40 18 40 0 0
-10 11 -15 35 -15 l35 0 0 110 c0 125 -11 159 -63 190 -43 27 -131 27 -174 0z
m147 -184 c0 -24 -51 -57 -83 -54 -38 4 -56 30 -38 52 18 21 121 23 121 2z"/>
<path d="M4226 1177 c-22 -12 -49 -37 -59 -55 -24 -40 -25 -117 -3 -159 58
-112 228 -122 297 -17 30 46 25 64 -17 64 -27 0 -43 -7 -64 -30 -35 -38 -78
-40 -117 -6 -36 31 -39 95 -6 127 28 28 87 28 117 0 15 -14 35 -21 64 -21 23
0 42 4 42 9 0 21 -49 78 -80 93 -49 25 -126 23 -174 -5z"/>
<path d="M695 846 c-16 -7 -40 -24 -52 -37 -21 -24 -83 -140 -83 -156 0 -22
-82 -85 -139 -108 -87 -34 -129 -68 -157 -129 -43 -92 -27 -184 46 -256 50
-51 113 -75 163 -64 17 3 71 27 118 52 141 73 222 69 373 -20 64 -38 72 -40
131 -36 49 3 72 10 104 32 88 61 117 191 65 294 -27 55 -62 82 -132 103 -72
21 -116 68 -157 168 -21 49 -49 101 -64 115 -54 52 -151 71 -216 42z"/>
<path d="M3120 599 c0 -69 -1 -70 -22 -62 -46 16 -135 9 -165 -13 -68 -51 -87
-157 -42 -230 43 -69 149 -92 218 -47 22 14 25 14 33 -1 5 -9 22 -16 38 -16
l30 0 0 220 0 220 -45 0 -45 0 0 -71z m-51 -130 c63 -22 77 -107 24 -149 -71
-55 -166 19 -132 103 10 24 31 39 75 57 1 0 15 -5 33 -11z"/>
<path d="M1727 458 c-42 -106 -79 -201 -83 -210 -5 -16 0 -18 44 -18 49 0 51
1 62 35 l12 35 87 0 87 0 13 -35 c12 -34 14 -35 62 -35 28 0 49 4 47 9 -1 5
-39 99 -83 210 l-80 201 -46 0 -45 0 -77 -192z m155 -8 l26 -70 -59 0 -58 0
24 65 c14 36 25 68 25 70 0 3 3 5 8 5 4 0 19 -31 34 -70z"/>
<path d="M2184 536 c-44 -20 -83 -74 -90 -129 -17 -123 110 -219 229 -173 51
19 93 60 102 99 7 26 6 27 -30 27 -27 0 -44 -7 -61 -25 -44 -47 -113 -45 -139
5 -21 41 -19 75 9 106 29 35 86 37 120 5 15 -14 35 -21 64 -21 23 0 42 3 42 8
0 22 -45 74 -79 92 -47 23 -121 26 -167 6z"/>
<path d="M2563 530 c-31 -18 -53 -48 -53 -69 0 -17 76 -13 90 4 27 33 110 9
110 -31 0 -11 -15 -14 -65 -14 -74 0 -128 -18 -144 -48 -20 -38 -13 -82 18
-113 26 -25 37 -29 86 -29 31 0 69 7 86 15 26 14 30 14 35 0 4 -9 19 -15 40
-15 l34 0 0 108 c0 126 -15 167 -70 194 -47 24 -126 23 -167 -2z m147 -180 c0
-6 -11 -22 -25 -35 -39 -40 -105 -30 -105 16 0 10 6 20 13 22 24 10 117 7 117
-3z"/>
<path d="M3370 532 c-98 -54 -114 -190 -30 -266 78 -70 212 -53 263 34 l18 30
-38 0 c-21 0 -56 -9 -78 -20 -41 -21 -77 -18 -107 8 -40 34 -23 41 105 44
l122 3 -3 35 c-5 51 -30 97 -65 122 -44 31 -139 36 -187 10z m130 -62 c11 -6
24 -19 30 -30 10 -19 7 -20 -70 -20 -44 0 -80 4 -80 10 0 5 10 18 22 30 24 22
68 26 98 10z"/>
<path d="M3798 535 c-17 -10 -29 -11 -33 -5 -3 5 -22 10 -41 10 l-34 0 0 -155
0 -155 45 0 45 0 0 84 c0 45 5 98 11 115 19 55 82 62 109 11 5 -10 10 -62 10
-114 l0 -96 45 0 45 0 0 96 c0 52 5 104 10 114 27 51 90 44 109 -11 6 -17 11
-70 11 -115 l0 -84 46 0 47 0 -5 113 c-5 126 -20 167 -68 192 -40 21 -98 19
-143 -5 -37 -20 -37 -20 -69 0 -39 23 -101 25 -140 5z"/>
<path d="M4270 536 c0 -2 29 -67 65 -144 36 -78 65 -149 65 -160 0 -26 -18
-40 -60 -44 -33 -3 -35 -6 -38 -40 l-3 -38 48 0 c89 0 100 14 187 229 42 105
76 194 76 197 0 3 -21 4 -47 2 l-47 -3 -28 -80 c-16 -44 -33 -84 -37 -88 -5
-5 -26 32 -47 82 l-38 91 -48 0 c-26 0 -48 -2 -48 -4z"/>
</g>
</svg>
